<!-- <svg xmlns="http://www.w3.org/2000/svg" height="48" viewBox="0 -960 960 960" width="48"><path d="M774-143 533-384q-30 26-69.959 40.5T378-329q-108.162 0-183.081-75Q120-479 120-585t75-181q75-75 181.5-75t181 75Q632-691 632-584.85 632-542 618-502q-14 40-42 75l243 241q9 8.442 9 20.721t-9.913 22.192Q809-134 795.778-134q-13.222 0-21.778-9ZM377-389q81.25 0 138.125-57.5T572-585q0-81-56.875-138.5T377-781q-82.083 0-139.542 57.5Q180-666 180-585t57.458 138.5Q294.917-389 377-389Z"/></svg> -->
<svg xmlns="http://www.w3.org/2000/svg" viewBox="0 0 24 24" fill="currentColor" class="w-6 h-6">
  <path fill-rule="evenodd" d="M10.5 3.75a6.75 6.75 0 100 13.5 6.75 6.75 0 000-13.5zM2.25 10.5a8.25 8.25 0 1114.59 5.28l4.69 4.69a.75.75 0 11-1.06 1.06l-4.69-4.69A8.25 8.25 0 012.25 10.5z" clip-rule="evenodd" />
</svg>
